<svg preserveAspectRatio="xMidYMid meet" data-bbox="20 42 160 116" viewBox="20 42 160 116" height="200" width="200" fill="#ffffff" xmlns="http://www.w3.org/2000/svg" role="img">
	<g>
		<path d="M100.567 158c-16.643 0-31.017-2.285-43.12-6.856-11.916-4.753-21.183-11.426-27.802-20.019-6.43-8.592-9.645-18.922-9.645-30.987 0-12.067 3.215-22.397 9.645-30.989 6.62-8.775 15.887-15.448 27.802-20.019C69.551 44.377 83.924 42 100.567 42c16.454 0 30.544 2.377 42.269 7.13 11.916 4.57 21.088 11.243 27.519 20.019 6.431 8.593 9.645 18.923 9.645 30.989 0 12.065-3.215 22.395-9.645 30.988-6.431 8.593-15.603 15.266-27.519 20.019-11.725 4.57-25.815 6.855-42.269 6.855zm-.283-26.052c9.834 0 17.872-1.372 24.113-4.114 6.431-2.742 11.158-6.49 14.185-11.243 3.215-4.753 4.822-10.238 4.822-16.453 0-6.033-1.513-11.427-4.538-16.181-3.027-4.936-7.754-8.775-14.185-11.517-6.241-2.925-14.279-4.388-24.113-4.388-10.023 0-18.25 1.463-24.681 4.388-6.431 2.742-11.252 6.49-14.468 11.243-3.215 4.753-4.822 10.238-4.822 16.455 0 6.215 1.513 11.7 4.538 16.453 3.216 4.753 8.038 8.501 14.468 11.243 6.43 2.742 14.657 4.114 24.681 4.114z"></path>
	</g>
</svg>